<svg width="14" height="14" viewBox="0 0 14 14" fill="none" xmlns="http://www.w3.org/2000/svg">
<path opacity="0.4" fill-rule="evenodd" clip-rule="evenodd" d="M9.27469 12.1336C9.05948 13.1985 8.12304 14.0001 7.00002 14.0001C5.877 14.0001 4.94056 13.1985 4.72543 12.1336H0.500032L2.35713 8.40017V4.66678C2.35713 2.08952 4.43587 0.000165582 7.00002 0.000165582C9.56424 0.000165582 11.6429 2.08952 11.6429 4.66678V8.40017L13.5 12.1336H9.27469ZM7.00002 13.0669C7.6056 13.0669 8.11569 12.6761 8.30763 12.1336H5.6925C5.88435 12.6761 6.39444 13.0669 7.00002 13.0669ZM10.7143 8.40017V4.66678C10.7143 2.60508 9.05138 0.933529 7.00002 0.933529C4.94865 0.933529 3.28573 2.60508 3.28573 4.66678V8.40017L1.89284 11.2002H12.1071L10.7143 8.40017Z" fill="black"/>
</svg>
