<svg width="15" height="14" viewBox="0 0 15 14" fill="none" xmlns="http://www.w3.org/2000/svg">
<path opacity="0.5" fill-rule="evenodd" clip-rule="evenodd" d="M14.3638 13.8662C14.1868 14.0402 13.9001 14.0402 13.7231 13.8662L10.0951 10.2959C9.08286 11.1043 7.79404 11.5903 6.38879 11.5903C3.13655 11.5903 0.500061 8.99575 0.500061 5.79526C0.500061 2.59473 3.13655 0.000213087 6.38879 0.000213087C9.64103 0.000213087 12.2776 2.59473 12.2776 5.79526C12.2776 7.29172 11.6962 8.65127 10.7499 9.67944L14.3638 13.2356C14.5407 13.4098 14.5407 13.6921 14.3638 13.8662ZM6.38879 0.891804C3.63681 0.891804 1.40594 3.08707 1.40594 5.79526C1.40594 8.50342 3.63681 10.6988 6.38879 10.6988C9.14069 10.6988 11.3715 8.50342 11.3715 5.79526C11.3715 3.08707 9.14069 0.891804 6.38879 0.891804Z" fill="black"/>
</svg>
